<svg width="129" height="23" viewBox="0 0 129 23" fill="none" xmlns="http://www.w3.org/2000/svg">
<path d="M124.867 5.00876H129L121.56 23H117.531L119.706 17.6684L113.502 5.00876H117.738L121.664 12.8649L124.867 5.00876Z" fill="#FA2A48"/>
<path d="M106.878 17.9269C105.516 17.9269 104.045 17.5594 103.156 16.6134V22.9742H99.323V4.96744H103.156V5.94052C104.045 4.99453 105.516 4.62696 106.878 4.62696C111.156 4.62696 113.711 7.85959 113.711 11.2779C113.711 14.6963 111.156 17.9289 106.878 17.9289V17.9269ZM106.544 7.96405C104.85 7.96405 102.99 9.06867 102.99 11.276C102.99 13.4833 104.85 14.5879 106.544 14.5879C108.517 14.5879 109.878 13.0364 109.878 11.276C109.878 9.51555 108.517 7.96405 106.544 7.96405Z" fill="#FA2A48"/>
<path d="M97.0682 14.8207C97.0682 16.3161 95.7866 17.529 94.2066 17.529H88.4834C86.9034 17.529 85.6218 16.3161 85.6218 14.8207C85.6218 13.3253 86.9034 12.1123 88.4834 12.1123H94.2066C95.7866 12.1123 97.0682 13.3253 97.0682 14.8207Z" fill="#FA2A48"/>
<path d="M88.4848 7.33412C88.4848 5.83872 89.7664 4.62576 91.3464 4.62576C92.9264 4.62576 94.208 5.83872 94.208 7.33412C94.208 8.82952 92.9264 10.0425 91.3464 10.0425C89.7664 10.0425 88.4848 8.82952 88.4848 7.33412Z" fill="#FA2A48"/>
<path d="M69.6819 4.96803H73.5145V12.5921L79.5423 4.96803H83.3748V17.5851H79.5423V9.96108L73.5145 17.5851H69.6819V4.96803Z" fill="#FA2A48"/>
<path d="M55.7136 -9.53674e-06H59.5462V4.96789H60.6581C64.7686 4.96789 67.7958 7.64917 67.7958 11.2764C67.7958 15.1668 64.9628 17.585 60.6847 17.585H59.5462V22.9475H55.7136V17.585H54.5751C50.2704 17.585 47.4926 15.1668 47.4926 11.2764C47.4926 7.64917 50.4932 4.96789 54.6303 4.96789H55.7136V-9.53674e-06ZM54.5199 8.12313C52.4923 8.12313 51.3251 9.38446 51.3251 11.2784C51.3251 13.1723 52.4085 14.4336 54.5465 14.4336H55.7136V8.12507H54.5199V8.12313ZM59.5462 8.12313V14.4317H60.7399C62.8779 14.4317 63.9612 13.091 63.9612 11.2764C63.9612 9.46184 62.7675 8.1212 60.7399 8.1212H59.5462V8.12313Z" fill="#FA2A48"/>
<path d="M46.2985 11.3031C46.2985 15.2205 42.9934 17.9269 39.0219 17.9269C35.0503 17.9269 31.7166 15.1412 31.7166 11.3031C31.7166 7.46494 34.9665 4.62696 38.9932 4.62696C43.0199 4.62696 46.2985 7.4127 46.2985 11.3031ZM36.5506 8.85781C35.8291 9.5407 35.5511 10.3571 35.5511 11.3031C35.5511 13.2492 37.0228 14.5899 39.0219 14.5899C41.0209 14.5899 42.466 13.1699 42.466 11.3031C42.466 10.804 42.3822 10.3571 42.2166 9.93535C41.8283 9.09382 41.2437 8.59471 40.3832 8.20006C39.9396 8.04143 39.494 7.96405 39.0219 7.96405C38.0223 7.96405 37.3008 8.2523 36.5506 8.85781Z" fill="#FA2A48"/>
<path d="M23.688 17.9269C22.3267 17.9269 20.855 17.5594 19.9658 16.6134V22.9742H16.1333V4.96744H19.9658V5.94052C20.855 4.99453 22.3267 4.62696 23.688 4.62696C27.9661 4.62696 30.5211 7.85959 30.5211 11.2779C30.5211 14.6963 27.9661 17.9289 23.688 17.9289V17.9269ZM23.3548 7.96405C21.6603 7.96405 19.8003 9.06867 19.8003 11.276C19.8003 13.4833 21.6603 14.5879 23.3548 14.5879C25.3273 14.5879 26.6886 13.0364 26.6886 11.276C26.6886 9.51555 25.3273 7.96405 23.3548 7.96405Z" fill="#FA2A48"/>
<path d="M13.4987 4.96803V17.5851H9.66614V8.12133H3.83457V17.5851H0V4.96803H13.4987Z" fill="#FA2A48"/>
</svg>
