<svg width="73" height="73" viewBox="0 0 73 73" fill="none" xmlns="http://www.w3.org/2000/svg">
<path d="M35.9331 1.57677C36.198 0.592717 37.5942 0.592719 37.8592 1.57677L44.9979 28.0905C45.0904 28.4338 45.3585 28.7019 45.7017 28.7943L72.2155 35.9331C73.1995 36.198 73.1995 37.5942 72.2155 37.8592L45.7017 44.9979C45.3585 45.0904 45.0904 45.3585 44.9979 45.7017L37.8592 72.2155C37.5942 73.1995 36.198 73.1995 35.9331 72.2155L28.7943 45.7017C28.7019 45.3585 28.4338 45.0904 28.0905 44.9979L1.57677 37.8592C0.592718 37.5942 0.592719 36.198 1.57677 35.9331L28.0905 28.7943C28.4338 28.7019 28.7019 28.4338 28.7943 28.0905L35.9331 1.57677Z" fill="url(#paint0_linear_84_2529)"/>
<defs>
<linearGradient id="paint0_linear_84_2529" x1="-7.40778" y1="18.8213" x2="52.7886" y2="44.6018" gradientUnits="userSpaceOnUse">
<stop stop-color="#C2CDFB"/>
<stop offset="1" stop-color="#F1F2FC"/>
</linearGradient>
</defs>
</svg>
