<svg width="73" height="73" viewBox="0 0 73 73" fill="none" xmlns="http://www.w3.org/2000/svg">
<path d="M35.7044 1.34813C35.9694 0.36408 37.3656 0.364081 37.6305 1.34813L44.7693 27.8619C44.8617 28.2051 45.1298 28.4732 45.473 28.5657L71.9868 35.7044C72.9709 35.9694 72.9709 37.3656 71.9868 37.6305L45.473 44.7693C45.1298 44.8617 44.8617 45.1298 44.7693 45.473L37.6305 71.9868C37.3656 72.9709 35.9694 72.9709 35.7044 71.9868L28.5657 45.473C28.4732 45.1298 28.2051 44.8617 27.8619 44.7693L1.34813 37.6305C0.36408 37.3656 0.364081 35.9694 1.34813 35.7044L27.8619 28.5657C28.2051 28.4732 28.4732 28.2051 28.5657 27.8619L35.7044 1.34813Z" fill="url(#paint0_linear_84_2530)"/>
<defs>
<linearGradient id="paint0_linear_84_2530" x1="-7.63642" y1="18.5927" x2="52.5599" y2="44.3732" gradientUnits="userSpaceOnUse">
<stop stop-color="#C2CDFB"/>
<stop offset="1" stop-color="#F1F2FC"/>
</linearGradient>
</defs>
</svg>
