<svg width="173" height="173" viewBox="0 0 173 173" fill="none" xmlns="http://www.w3.org/2000/svg">
<path d="M85.6649 1.57677C85.9298 0.592715 87.326 0.592719 87.5909 1.57677L105.279 67.2726C105.372 67.6159 105.64 67.884 105.983 67.9764L171.679 85.6649C172.663 85.9298 172.663 87.326 171.679 87.5909L105.983 105.279C105.64 105.372 105.372 105.64 105.279 105.983L87.5909 171.679C87.326 172.663 85.9298 172.663 85.6649 171.679L67.9764 105.983C67.884 105.64 67.6159 105.372 67.2726 105.279L1.57677 87.5909C0.592715 87.326 0.592719 85.9298 1.57677 85.6649L67.2726 67.9764C67.6159 67.884 67.884 67.6159 67.9764 67.2726L85.6649 1.57677Z" fill="url(#paint0_linear_84_2528)"/>
<defs>
<linearGradient id="paint0_linear_84_2528" x1="24.8915" y1="171.116" x2="105.482" y2="62.8104" gradientUnits="userSpaceOnUse">
<stop stop-color="#C2CDFB"/>
<stop offset="1" stop-color="#F1F2FC"/>
</linearGradient>
</defs>
</svg>
